<svg width="16" height="14" viewBox="0 0 16 14" fill="none" xmlns="http://www.w3.org/2000/svg">
<path d="M16 2.3165C15.4107 2.57694 14.7787 2.75383 14.1147 2.83294C14.792 2.42672 15.312 1.78317 15.5573 1.01783C14.9244 1.39383 14.2213 1.66672 13.4738 1.81339C12.8747 1.17605 12.0213 0.777832 11.0773 0.777832C9.26488 0.777832 7.79466 2.24628 7.79466 4.05961C7.79466 4.3165 7.82311 4.56717 7.87999 4.80805C5.15111 4.67028 2.73244 3.36361 1.11377 1.37872C0.831107 1.86317 0.669329 2.42761 0.669329 3.02761C0.669329 4.16717 1.24888 5.17161 2.12977 5.76005C1.592 5.74317 1.08533 5.59561 0.642663 5.35028C0.642663 5.36361 0.642663 5.37694 0.642663 5.39117C0.642663 6.98139 1.77422 8.3085 3.27555 8.60983C3 8.6845 2.71022 8.7245 2.41066 8.7245C2.2 8.7245 1.99377 8.70494 1.79377 8.66583C2.21066 9.97072 3.424 10.9192 4.85955 10.9458C3.73688 11.8267 2.32177 12.3512 0.783996 12.3512C0.518218 12.3512 0.257774 12.3352 0.00088501 12.3041C1.45333 13.2356 3.17866 13.7787 5.03289 13.7787C11.0702 13.7787 14.3724 8.77694 14.3724 4.44005C14.3724 4.29694 14.3689 4.15472 14.3618 4.01428C15.0027 3.55383 15.56 2.97517 16 2.3165Z" fill="white"/>
</svg>
